<svg width="33" height="33" viewBox="0 0 33 33" fill="none" xmlns="http://www.w3.org/2000/svg">
<path fill-rule="evenodd" clip-rule="evenodd" d="M7.32216 7.76436C7.84286 7.24367 8.68708 7.24367 9.20778 7.76436L16.265 14.8216L23.3222 7.76436C23.8429 7.24367 24.6871 7.24367 25.2078 7.76436C25.7285 8.28506 25.7285 9.12928 25.2078 9.64998L18.1506 16.7072L25.2078 23.7644C25.7285 24.2851 25.7285 25.1293 25.2078 25.65C24.6871 26.1707 23.8429 26.1707 23.3222 25.65L16.265 18.5928L9.20778 25.65C8.68708 26.1707 7.84286 26.1707 7.32216 25.65C6.80147 25.1293 6.80147 24.2851 7.32216 23.7644L14.3794 16.7072L7.32216 9.64998C6.80147 9.12928 6.80147 8.28506 7.32216 7.76436Z" fill="#3F3F55"/>
</svg>
